<?xml version="1.0" encoding="UTF-8" standalone="no"?> <svg id="Flat" height="512" viewBox="0 0 512 512" width="512" xmlns="http://www.w3.org/2000/svg"><g><g><path d="m352 488h-192v-9.585a20 20 0 0 1 13.675-18.973l6.974-2.325a40 40 0 0 0 27.351-37.947v-35.17h96v35.17a40 40 0 0 0 27.351 37.947l6.974 2.325a20 20 0 0 1 13.675 18.973z" fill="#2471d6"/><rect fill="#25b1fa" height="368" rx="10" width="464" x="24" y="24"/><path d="m24 72h464v256h-464z" fill="#b3e9ff"/><g fill="#f2fbff"><rect height="192" rx="10" width="400" x="56" y="104"/><path d="m232 352h48v16h-48z"/><path d="m48 40h16v16h-16z"/><path d="m80 40h16v16h-16z"/><path d="m112 40h16v16h-16z"/><path d="m416 40h16v16h-16z"/><path d="m448 40h16v16h-16z"/></g><rect fill="#fac850" height="144" rx="10" width="208" x="152" y="128"/><path d="m320 168-40 16v-6a10 10 0 0 0 -10-10h-76a10 10 0 0 0 -10 10v44a10 10 0 0 0 10 10h76a10 10 0 0 0 10-10v-6l40 16h8v-64z" fill="#fffdfa"/></g><path d="m445.692 96h-189.384c-.1 0-.206 0-.308.006s-.2-.006-.308-.006h-189.384a18.02 18.02 0 0 0 -18 18v172a18.02 18.02 0 0 0 18 18h189.384c.1 0 .206 0 .308-.006s.2.006.308.006h189.384a18.02 18.02 0 0 0 18-18v-172a18.02 18.02 0 0 0 -18-18zm2 190a2 2 0 0 1 -2 2h-181.384v-16h-16.616v16h-181.384a2 2 0 0 1 -2-2v-78h87.692v-16h-87.692v-78a2 2 0 0 1 2-2h181.384v16h16.616v-16h181.384a2 2 0 0 1 2 2v78h-87.692v16h87.692z" fill="#80daff"/></g></svg>